<svg width="77" height="76" viewBox="0 0 77 76" fill="none" xmlns="http://www.w3.org/2000/svg">
<mask id="mask0_149853_4971" style="mask-type:alpha" maskUnits="userSpaceOnUse" x="26" y="15" width="25" height="25">
<rect x="26.667" y="15.5" width="24" height="24" fill="#D9D9D9"/>
</mask>
<g mask="url(#mask0_149853_4971)">
<path d="M29.0085 39.5149C28.3646 39.5149 27.8134 39.2856 27.3548 38.827C26.8963 38.3685 26.667 37.8173 26.667 37.1733V20.7826C26.667 20.1387 26.8963 19.5874 27.3548 19.1289C27.8134 18.6703 28.3646 18.4411 29.0085 18.4411H39.4576L37.1161 20.7826H29.0085V37.1733H45.3993V29.0365L47.7408 26.695V37.1733C47.7408 37.8173 47.5115 38.3685 47.053 38.827C46.5944 39.2856 46.0432 39.5149 45.3993 39.5149H29.0085ZM42.0919 19.1142L43.7602 20.7533L36.0331 28.4804V30.1487H37.6722L45.4285 22.3924L47.0969 24.0315L39.3405 31.7878C39.1259 32.0024 38.8771 32.1732 38.5942 32.3C38.3112 32.4268 38.0137 32.4903 37.7015 32.4903H34.8624C34.5306 32.4903 34.2526 32.3781 34.0282 32.1537C33.8038 31.9293 33.6916 31.6512 33.6916 31.3195V28.4804C33.6916 28.1682 33.7501 27.8706 33.8672 27.5877C33.9843 27.3047 34.1501 27.0559 34.3648 26.8413L42.0919 19.1142ZM47.0969 24.0315L42.0919 19.1142L45.0188 16.1873C45.4871 15.719 46.0481 15.4849 46.7017 15.4849C47.3554 15.4849 47.9067 15.719 48.3555 16.1873L49.9945 17.8557C50.4433 18.3045 50.6677 18.8508 50.6677 19.4947C50.6677 20.1387 50.4433 20.685 49.9945 21.1338L47.0969 24.0315Z" fill="#CDCDCD"/>
</g>
<path d="M13.3027 57.5L12.0723 54.3281H8.06641L6.84277 57.5H5.66699L9.57715 47.4648H10.623L14.5059 57.5H13.3027ZM11.7236 53.2959L10.5547 50.1445C10.5273 50.0625 10.4818 49.9281 10.418 49.7412C10.3587 49.5544 10.2972 49.3607 10.2334 49.1602C10.1696 48.9596 10.1172 48.7979 10.0762 48.6748C10.0306 48.8617 9.98047 49.0485 9.92578 49.2354C9.87565 49.4176 9.82552 49.5885 9.77539 49.748C9.72526 49.903 9.68197 50.0352 9.64551 50.1445L8.45605 53.2959H11.7236ZM18.3887 57.6367C17.4408 57.6367 16.6888 57.3132 16.1328 56.666C15.5814 56.0189 15.3057 55.0573 15.3057 53.7812C15.3057 52.4915 15.5882 51.5186 16.1533 50.8623C16.7184 50.2015 17.4704 49.8711 18.4092 49.8711C18.8057 49.8711 19.152 49.9235 19.4482 50.0283C19.7445 50.1331 19.9997 50.2744 20.2139 50.4521C20.4281 50.6253 20.6081 50.8236 20.7539 51.0469H20.8359C20.8177 50.9056 20.7995 50.7119 20.7812 50.4658C20.763 50.2197 20.7539 50.0192 20.7539 49.8643V46.8633H21.8887V57.5H20.9727L20.8018 56.4336H20.7539C20.6126 56.6569 20.4326 56.8597 20.2139 57.042C19.9997 57.2243 19.7422 57.3701 19.4414 57.4795C19.1452 57.5843 18.7943 57.6367 18.3887 57.6367ZM18.5664 56.6934C19.3685 56.6934 19.9359 56.4655 20.2686 56.0098C20.6012 55.554 20.7676 54.8773 20.7676 53.9795V53.7744C20.7676 52.8219 20.6081 52.0905 20.2891 51.5801C19.9746 51.0697 19.4004 50.8145 18.5664 50.8145C17.8691 50.8145 17.3473 51.0833 17.001 51.6211C16.6546 52.1543 16.4814 52.8835 16.4814 53.8086C16.4814 54.7292 16.6523 55.4401 16.9941 55.9414C17.3405 56.4427 17.8646 56.6934 18.5664 56.6934ZM26.9609 57.6367C26.013 57.6367 25.2611 57.3132 24.7051 56.666C24.1536 56.0189 23.8779 55.0573 23.8779 53.7812C23.8779 52.4915 24.1605 51.5186 24.7256 50.8623C25.2907 50.2015 26.0426 49.8711 26.9814 49.8711C27.3779 49.8711 27.7243 49.9235 28.0205 50.0283C28.3167 50.1331 28.5719 50.2744 28.7861 50.4521C29.0003 50.6253 29.1803 50.8236 29.3262 51.0469H29.4082C29.39 50.9056 29.3717 50.7119 29.3535 50.4658C29.3353 50.2197 29.3262 50.0192 29.3262 49.8643V46.8633H30.4609V57.5H29.5449L29.374 56.4336H29.3262C29.1849 56.6569 29.0049 56.8597 28.7861 57.042C28.5719 57.2243 28.3145 57.3701 28.0137 57.4795C27.7174 57.5843 27.3665 57.6367 26.9609 57.6367ZM27.1387 56.6934C27.9408 56.6934 28.5081 56.4655 28.8408 56.0098C29.1735 55.554 29.3398 54.8773 29.3398 53.9795V53.7744C29.3398 52.8219 29.1803 52.0905 28.8613 51.5801C28.5469 51.0697 27.9727 50.8145 27.1387 50.8145C26.4414 50.8145 25.9196 51.0833 25.5732 51.6211C25.2269 52.1543 25.0537 52.8835 25.0537 53.8086C25.0537 54.7292 25.2246 55.4401 25.5664 55.9414C25.9128 56.4427 26.4368 56.6934 27.1387 56.6934ZM39.7441 57.5H38.5752V48.5312H35.4307V47.5059H42.875V48.5312H39.7441V57.5ZM47.0176 49.8848C47.9108 49.8848 48.5739 50.0853 49.0068 50.4863C49.4398 50.8874 49.6562 51.5277 49.6562 52.4072V57.5H48.8291L48.6104 56.3926H48.5557C48.346 56.666 48.1273 56.8962 47.8994 57.083C47.6715 57.2653 47.4072 57.4043 47.1064 57.5C46.8102 57.5911 46.4456 57.6367 46.0127 57.6367C45.557 57.6367 45.1514 57.557 44.7959 57.3975C44.445 57.238 44.167 56.9964 43.9619 56.6729C43.7614 56.3493 43.6611 55.9391 43.6611 55.4424C43.6611 54.695 43.9574 54.1208 44.5498 53.7197C45.1423 53.3187 46.0446 53.0999 47.2568 53.0635L48.5488 53.0088V52.5508C48.5488 51.9036 48.4098 51.4502 48.1318 51.1904C47.8538 50.9307 47.4619 50.8008 46.9561 50.8008C46.5641 50.8008 46.1904 50.8577 45.835 50.9717C45.4795 51.0856 45.1423 51.2201 44.8232 51.375L44.4746 50.5137C44.8118 50.3405 45.1992 50.1924 45.6367 50.0693C46.0742 49.9463 46.5345 49.8848 47.0176 49.8848ZM48.5352 53.8086L47.3936 53.8564C46.4593 53.8929 45.8008 54.0456 45.418 54.3145C45.0352 54.5833 44.8438 54.9639 44.8438 55.4561C44.8438 55.8844 44.9736 56.2012 45.2334 56.4062C45.4932 56.6113 45.8372 56.7139 46.2656 56.7139C46.931 56.7139 47.4756 56.5293 47.8994 56.1602C48.3232 55.791 48.5352 55.2373 48.5352 54.499V53.8086ZM56.8408 55.4492C56.8408 55.9277 56.7201 56.3311 56.4785 56.6592C56.2415 56.9827 55.8997 57.2266 55.4531 57.3906C55.0111 57.5547 54.4824 57.6367 53.8672 57.6367C53.3431 57.6367 52.8896 57.5957 52.5068 57.5137C52.124 57.4316 51.7891 57.3154 51.502 57.165V56.1191C51.8073 56.2695 52.1719 56.4062 52.5957 56.5293C53.0195 56.6523 53.4525 56.7139 53.8945 56.7139C54.5417 56.7139 55.0111 56.609 55.3027 56.3994C55.5944 56.1898 55.7402 55.9049 55.7402 55.5449C55.7402 55.3398 55.681 55.1598 55.5625 55.0049C55.4486 54.8454 55.2549 54.6927 54.9814 54.5469C54.708 54.3965 54.3298 54.2324 53.8467 54.0547C53.3682 53.8724 52.9535 53.6924 52.6025 53.5146C52.2562 53.3324 51.9873 53.1113 51.7959 52.8516C51.609 52.5918 51.5156 52.2546 51.5156 51.8398C51.5156 51.2064 51.7708 50.721 52.2812 50.3838C52.7962 50.042 53.4707 49.8711 54.3047 49.8711C54.7559 49.8711 55.1774 49.9167 55.5693 50.0078C55.9658 50.0944 56.335 50.2129 56.6768 50.3633L56.2939 51.2725C55.984 51.1403 55.6536 51.0286 55.3027 50.9375C54.9518 50.8464 54.5941 50.8008 54.2295 50.8008C53.7054 50.8008 53.3021 50.8874 53.0195 51.0605C52.7415 51.2337 52.6025 51.4707 52.6025 51.7715C52.6025 52.0039 52.6663 52.1953 52.7939 52.3457C52.9261 52.4961 53.1357 52.6374 53.4229 52.7695C53.71 52.9017 54.0882 53.0566 54.5576 53.2344C55.027 53.4076 55.4326 53.5876 55.7744 53.7744C56.1162 53.9567 56.3783 54.18 56.5605 54.4443C56.7474 54.7041 56.8408 55.0391 56.8408 55.4492ZM59.7939 46.8633V52.3867C59.7939 52.569 59.7871 52.7923 59.7734 53.0566C59.7598 53.3164 59.7484 53.5465 59.7393 53.7471H59.7871C59.8828 53.6286 60.0218 53.4531 60.2041 53.2207C60.391 52.9883 60.5482 52.8014 60.6758 52.6602L63.1641 50.0078H64.4971L61.4824 53.207L64.7158 57.5H63.3486L60.7031 53.9521L59.7939 54.7861V57.5H58.666V46.8633H59.7939ZM70.8682 55.4492C70.8682 55.9277 70.7474 56.3311 70.5059 56.6592C70.2689 56.9827 69.9271 57.2266 69.4805 57.3906C69.0384 57.5547 68.5098 57.6367 67.8945 57.6367C67.3704 57.6367 66.917 57.5957 66.5342 57.5137C66.1514 57.4316 65.8164 57.3154 65.5293 57.165V56.1191C65.8346 56.2695 66.1992 56.4062 66.623 56.5293C67.0469 56.6523 67.4798 56.7139 67.9219 56.7139C68.569 56.7139 69.0384 56.609 69.3301 56.3994C69.6217 56.1898 69.7676 55.9049 69.7676 55.5449C69.7676 55.3398 69.7083 55.1598 69.5898 55.0049C69.4759 54.8454 69.2822 54.6927 69.0088 54.5469C68.7354 54.3965 68.3571 54.2324 67.874 54.0547C67.3955 53.8724 66.9808 53.6924 66.6299 53.5146C66.2835 53.3324 66.0146 53.1113 65.8232 52.8516C65.6364 52.5918 65.543 52.2546 65.543 51.8398C65.543 51.2064 65.7982 50.721 66.3086 50.3838C66.8236 50.042 67.498 49.8711 68.332 49.8711C68.7832 49.8711 69.2048 49.9167 69.5967 50.0078C69.9932 50.0944 70.3623 50.2129 70.7041 50.3633L70.3213 51.2725C70.0114 51.1403 69.681 51.0286 69.3301 50.9375C68.9792 50.8464 68.6214 50.8008 68.2568 50.8008C67.7327 50.8008 67.3294 50.8874 67.0469 51.0605C66.7689 51.2337 66.6299 51.4707 66.6299 51.7715C66.6299 52.0039 66.6937 52.1953 66.8213 52.3457C66.9535 52.4961 67.1631 52.6374 67.4502 52.7695C67.7373 52.9017 68.1156 53.0566 68.585 53.2344C69.0544 53.4076 69.46 53.5876 69.8018 53.7744C70.1436 53.9567 70.4056 54.18 70.5879 54.4443C70.7747 54.7041 70.8682 55.0391 70.8682 55.4492Z" fill="#CDCDCD"/>
</svg>
