<?xml version="1.0" encoding="UTF-8" standalone="no"?>
<!DOCTYPE svg PUBLIC "-//W3C//DTD SVG 1.1//EN"
 "http://www.w3.org/Graphics/SVG/1.1/DTD/svg11.dtd">
<!-- Generated by graphviz version 2.47.0 (20210316.0004)
 -->
<!-- Title: dependencies Pages: 1 -->
<svg width="3853pt" height="284pt"
 viewBox="0.00 0.00 3853.00 284.00" xmlns="http://www.w3.org/2000/svg" xmlns:xlink="http://www.w3.org/1999/xlink">
<g id="graph0" class="graph" transform="scale(1 1) rotate(0) translate(4 280)">
<title>dependencies</title>
<polygon fill="white" stroke="transparent" points="-4,4 -4,-280 3849,-280 3849,4 -4,4"/>
<text text-anchor="start" x="1901.51" y="-42.4" font-family="Times-12" font-weight="bold" font-size="14.00">Legend</text>
<polygon fill="#ffffb3" stroke="transparent" points="1688.5,-10 1688.5,-30 1708.5,-30 1708.5,-10 1688.5,-10"/>
<text text-anchor="start" x="1712.13" y="-15.4" font-family="Times-12" font-size="14.00"> &#160;Declarations</text>
<polygon fill="#8dd3c7" stroke="transparent" points="1801.5,-10 1801.5,-30 1821.5,-30 1821.5,-10 1801.5,-10"/>
<text text-anchor="start" x="1825.23" y="-15.4" font-family="Times-12" font-size="14.00"> &#160;Module</text>
<polygon fill="#80b1d3" stroke="transparent" points="1887.5,-10 1887.5,-30 1907.5,-30 1907.5,-10 1887.5,-10"/>
<text text-anchor="start" x="1911.28" y="-15.4" font-family="Times-12" font-size="14.00"> &#160;Bootstrap</text>
<polygon fill="#fdb462" stroke="transparent" points="1984.5,-10 1984.5,-30 2004.5,-30 2004.5,-10 1984.5,-10"/>
<text text-anchor="start" x="2008.17" y="-15.4" font-family="Times-12" font-size="14.00"> &#160;Providers</text>
<polygon fill="#fb8072" stroke="transparent" points="2080.5,-10 2080.5,-30 2100.5,-30 2100.5,-10 2080.5,-10"/>
<text text-anchor="start" x="2104.23" y="-15.4" font-family="Times-12" font-size="14.00"> &#160;Exports</text>
<g id="clust1" class="cluster">
<title>cluster_AppModule</title>
<polygon fill="none" stroke="black" stroke-dasharray="1,5" points="8,-70 8,-268 3837,-268 3837,-70 8,-70"/>
</g>
<g id="clust24" class="cluster">
<title>cluster_AppModule_bootstrap</title>
<polygon fill="none" stroke="black" points="1840,-208 1840,-260 1964,-260 1964,-208 1840,-208"/>
</g>
<g id="clust25" class="cluster">
<title>cluster_AppModule_providers</title>
<polygon fill="none" stroke="black" points="3304,-78 3304,-130 3829,-130 3829,-78 3304,-78"/>
</g>
<g id="clust22" class="cluster">
<title>cluster_AppModule_imports</title>
<polygon fill="none" stroke="black" points="3152,-78 3152,-130 3296,-130 3296,-78 3152,-78"/>
</g>
<g id="clust2" class="cluster">
<title>cluster_AppModule_declarations</title>
<polygon fill="none" stroke="black" points="16,-78 16,-130 3144,-130 3144,-78 16,-78"/>
</g>
<!-- AddTaskComponent -->
<g id="node1" class="node">
<title>AddTaskComponent</title>
<polygon fill="#ffffb3" stroke="black" points="3136.15,-122 3003.85,-122 3003.85,-86 3136.15,-86 3136.15,-122"/>
<text text-anchor="middle" x="3070" y="-99.8" font-family="Times,serif" font-size="14.00">AddTaskComponent</text>
</g>
<!-- AppModule -->
<g id="node20" class="node">
<title>AppModule</title>
<polygon fill="#8dd3c7" stroke="black" points="1943.66,-187 1940.66,-191 1919.66,-191 1916.66,-187 1860.34,-187 1860.34,-151 1943.66,-151 1943.66,-187"/>
<text text-anchor="middle" x="1902" y="-164.8" font-family="Times,serif" font-size="14.00">AppModule</text>
</g>
<!-- AddTaskComponent&#45;&gt;AppModule -->
<g id="edge1" class="edge">
<title>AddTaskComponent&#45;&gt;AppModule</title>
<path fill="none" stroke="black" d="M3070,-122.22C3070,-142.37 3070,-172 3070,-172 3070,-172 1953.91,-172 1953.91,-172"/>
<polygon fill="black" stroke="black" points="1953.91,-168.5 1943.91,-172 1953.91,-175.5 1953.91,-168.5"/>
</g>
<!-- AppComponent -->
<g id="node2" class="node">
<title>AppComponent</title>
<polygon fill="#ffffb3" stroke="black" points="2985.94,-122 2880.06,-122 2880.06,-86 2985.94,-86 2985.94,-122"/>
<text text-anchor="middle" x="2933" y="-99.8" font-family="Times,serif" font-size="14.00">AppComponent</text>
</g>
<!-- AppComponent&#45;&gt;AppModule -->
<g id="edge2" class="edge">
<title>AppComponent&#45;&gt;AppModule</title>
<path fill="none" stroke="black" d="M2933,-122.11C2933,-141.34 2933,-169 2933,-169 2933,-169 1953.69,-169 1953.69,-169"/>
<polygon fill="black" stroke="black" points="1953.69,-165.5 1943.69,-169 1953.69,-172.5 1953.69,-165.5"/>
</g>
<!-- BoardComponent -->
<g id="node3" class="node">
<title>BoardComponent</title>
<polygon fill="#ffffb3" stroke="black" points="2862.55,-122 2747.45,-122 2747.45,-86 2862.55,-86 2862.55,-122"/>
<text text-anchor="middle" x="2805" y="-99.8" font-family="Times,serif" font-size="14.00">BoardComponent</text>
</g>
<!-- BoardComponent&#45;&gt;AppModule -->
<g id="edge3" class="edge">
<title>BoardComponent&#45;&gt;AppModule</title>
<path fill="none" stroke="black" d="M2805,-122.27C2805,-140.56 2805,-166 2805,-166 2805,-166 1953.74,-166 1953.74,-166"/>
<polygon fill="black" stroke="black" points="1953.74,-162.5 1943.74,-166 1953.74,-169.5 1953.74,-162.5"/>
</g>
<!-- BoardEditTaskComponent -->
<g id="node4" class="node">
<title>BoardEditTaskComponent</title>
<polygon fill="#ffffb3" stroke="black" points="2729.09,-122 2562.91,-122 2562.91,-86 2729.09,-86 2729.09,-122"/>
<text text-anchor="middle" x="2646" y="-99.8" font-family="Times,serif" font-size="14.00">BoardEditTaskComponent</text>
</g>
<!-- BoardEditTaskComponent&#45;&gt;AppModule -->
<g id="edge4" class="edge">
<title>BoardEditTaskComponent&#45;&gt;AppModule</title>
<path fill="none" stroke="black" d="M2646,-122.02C2646,-139.37 2646,-163 2646,-163 2646,-163 1953.86,-163 1953.86,-163"/>
<polygon fill="black" stroke="black" points="1953.86,-159.5 1943.86,-163 1953.86,-166.5 1953.86,-159.5"/>
</g>
<!-- BoardTaskOverlayComponent -->
<g id="node5" class="node">
<title>BoardTaskOverlayComponent</title>
<polygon fill="#ffffb3" stroke="black" points="2544.84,-122 2357.16,-122 2357.16,-86 2544.84,-86 2544.84,-122"/>
<text text-anchor="middle" x="2451" y="-99.8" font-family="Times,serif" font-size="14.00">BoardTaskOverlayComponent</text>
</g>
<!-- BoardTaskOverlayComponent&#45;&gt;AppModule -->
<g id="edge5" class="edge">
<title>BoardTaskOverlayComponent&#45;&gt;AppModule</title>
<path fill="none" stroke="black" d="M2451,-122.03C2451,-138.4 2451,-160 2451,-160 2451,-160 1953.71,-160 1953.71,-160"/>
<polygon fill="black" stroke="black" points="1953.71,-156.5 1943.71,-160 1953.71,-163.5 1953.71,-156.5"/>
</g>
<!-- ContactsAddComponent -->
<g id="node6" class="node">
<title>ContactsAddComponent</title>
<polygon fill="#ffffb3" stroke="black" points="2339.43,-122 2184.57,-122 2184.57,-86 2339.43,-86 2339.43,-122"/>
<text text-anchor="middle" x="2262" y="-99.8" font-family="Times,serif" font-size="14.00">ContactsAddComponent</text>
</g>
<!-- ContactsAddComponent&#45;&gt;AppModule -->
<g id="edge6" class="edge">
<title>ContactsAddComponent&#45;&gt;AppModule</title>
<path fill="none" stroke="black" d="M2262,-122.24C2262,-137.57 2262,-157 2262,-157 2262,-157 1954,-157 1954,-157"/>
<polygon fill="black" stroke="black" points="1954,-153.5 1944,-157 1954,-160.5 1954,-153.5"/>
</g>
<!-- ContactsEditComponent -->
<g id="node7" class="node">
<title>ContactsEditComponent</title>
<polygon fill="#ffffb3" stroke="black" points="2166.66,-122 2013.34,-122 2013.34,-86 2166.66,-86 2166.66,-122"/>
<text text-anchor="middle" x="2090" y="-99.8" font-family="Times,serif" font-size="14.00">ContactsEditComponent</text>
</g>
<!-- ContactsEditComponent&#45;&gt;AppModule -->
<g id="edge7" class="edge">
<title>ContactsEditComponent&#45;&gt;AppModule</title>
<path fill="none" stroke="black" d="M2090,-122.05C2090,-136.37 2090,-154 2090,-154 2090,-154 1953.72,-154 1953.72,-154"/>
<polygon fill="black" stroke="black" points="1953.72,-150.5 1943.72,-154 1953.72,-157.5 1953.72,-150.5"/>
</g>
<!-- ContactsOverviewComponent -->
<g id="node8" class="node">
<title>ContactsOverviewComponent</title>
<polygon fill="#ffffb3" stroke="black" points="1994.52,-122 1809.48,-122 1809.48,-86 1994.52,-86 1994.52,-122"/>
<text text-anchor="middle" x="1902" y="-99.8" font-family="Times,serif" font-size="14.00">ContactsOverviewComponent</text>
</g>
<!-- ContactsOverviewComponent&#45;&gt;AppModule -->
<g id="edge8" class="edge">
<title>ContactsOverviewComponent&#45;&gt;AppModule</title>
<path fill="none" stroke="black" d="M1902,-122.11C1902,-122.11 1902,-140.99 1902,-140.99"/>
<polygon fill="black" stroke="black" points="1898.5,-140.99 1902,-150.99 1905.5,-140.99 1898.5,-140.99"/>
</g>
<!-- ContactsViewComponent -->
<g id="node9" class="node">
<title>ContactsViewComponent</title>
<polygon fill="#ffffb3" stroke="black" points="1791.14,-122 1630.86,-122 1630.86,-86 1791.14,-86 1791.14,-122"/>
<text text-anchor="middle" x="1711" y="-99.8" font-family="Times,serif" font-size="14.00">ContactsViewComponent</text>
</g>
<!-- ContactsViewComponent&#45;&gt;AppModule -->
<g id="edge9" class="edge">
<title>ContactsViewComponent&#45;&gt;AppModule</title>
<path fill="none" stroke="black" d="M1711,-122.05C1711,-136.37 1711,-154 1711,-154 1711,-154 1850.08,-154 1850.08,-154"/>
<polygon fill="black" stroke="black" points="1850.08,-157.5 1860.08,-154 1850.08,-150.5 1850.08,-157.5"/>
</g>
<!-- EditTaskComponent -->
<g id="node10" class="node">
<title>EditTaskComponent</title>
<polygon fill="#ffffb3" stroke="black" points="1612.88,-122 1481.12,-122 1481.12,-86 1612.88,-86 1612.88,-122"/>
<text text-anchor="middle" x="1547" y="-99.8" font-family="Times,serif" font-size="14.00">EditTaskComponent</text>
</g>
<!-- EditTaskComponent&#45;&gt;AppModule -->
<g id="edge10" class="edge">
<title>EditTaskComponent&#45;&gt;AppModule</title>
<path fill="none" stroke="black" d="M1547,-122.24C1547,-137.57 1547,-157 1547,-157 1547,-157 1850.23,-157 1850.23,-157"/>
<polygon fill="black" stroke="black" points="1850.23,-160.5 1860.23,-157 1850.23,-153.5 1850.23,-160.5"/>
</g>
<!-- FooterBarComponent -->
<g id="node11" class="node">
<title>FooterBarComponent</title>
<polygon fill="#ffffb3" stroke="black" points="1463.09,-122 1324.91,-122 1324.91,-86 1463.09,-86 1463.09,-122"/>
<text text-anchor="middle" x="1394" y="-99.8" font-family="Times,serif" font-size="14.00">FooterBarComponent</text>
</g>
<!-- FooterBarComponent&#45;&gt;AppModule -->
<g id="edge11" class="edge">
<title>FooterBarComponent&#45;&gt;AppModule</title>
<path fill="none" stroke="black" d="M1394,-122.03C1394,-138.4 1394,-160 1394,-160 1394,-160 1850,-160 1850,-160"/>
<polygon fill="black" stroke="black" points="1850,-163.5 1860,-160 1850,-156.5 1850,-163.5"/>
</g>
<!-- HeaderBarMobileComponent -->
<g id="node12" class="node">
<title>HeaderBarMobileComponent</title>
<polygon fill="#ffffb3" stroke="black" points="1307.4,-122 1124.6,-122 1124.6,-86 1307.4,-86 1307.4,-122"/>
<text text-anchor="middle" x="1216" y="-99.8" font-family="Times,serif" font-size="14.00">HeaderBarMobileComponent</text>
</g>
<!-- HeaderBarMobileComponent&#45;&gt;AppModule -->
<g id="edge12" class="edge">
<title>HeaderBarMobileComponent&#45;&gt;AppModule</title>
<path fill="none" stroke="black" d="M1216,-122.02C1216,-139.37 1216,-163 1216,-163 1216,-163 1850.12,-163 1850.12,-163"/>
<polygon fill="black" stroke="black" points="1850.12,-166.5 1860.12,-163 1850.12,-159.5 1850.12,-166.5"/>
</g>
<!-- LegalNoticeComponent -->
<g id="node13" class="node">
<title>LegalNoticeComponent</title>
<polygon fill="#ffffb3" stroke="black" points="1107.02,-122 956.98,-122 956.98,-86 1107.02,-86 1107.02,-122"/>
<text text-anchor="middle" x="1032" y="-99.8" font-family="Times,serif" font-size="14.00">LegalNoticeComponent</text>
</g>
<!-- LegalNoticeComponent&#45;&gt;AppModule -->
<g id="edge13" class="edge">
<title>LegalNoticeComponent&#45;&gt;AppModule</title>
<path fill="none" stroke="black" d="M1032,-122.27C1032,-140.56 1032,-166 1032,-166 1032,-166 1850.33,-166 1850.33,-166"/>
<polygon fill="black" stroke="black" points="1850.33,-169.5 1860.33,-166 1850.33,-162.5 1850.33,-169.5"/>
</g>
<!-- LoginComponent -->
<g id="node14" class="node">
<title>LoginComponent</title>
<polygon fill="#ffffb3" stroke="black" points="938.28,-122 823.72,-122 823.72,-86 938.28,-86 938.28,-122"/>
<text text-anchor="middle" x="881" y="-99.8" font-family="Times,serif" font-size="14.00">LoginComponent</text>
</g>
<!-- LoginComponent&#45;&gt;AppModule -->
<g id="edge14" class="edge">
<title>LoginComponent&#45;&gt;AppModule</title>
<path fill="none" stroke="black" d="M881,-122.11C881,-141.34 881,-169 881,-169 881,-169 1850.07,-169 1850.07,-169"/>
<polygon fill="black" stroke="black" points="1850.07,-172.5 1860.07,-169 1850.07,-165.5 1850.07,-172.5"/>
</g>
<!-- PrivacyPolicyComponent -->
<g id="node15" class="node">
<title>PrivacyPolicyComponent</title>
<polygon fill="#ffffb3" stroke="black" points="805.87,-122 646.13,-122 646.13,-86 805.87,-86 805.87,-122"/>
<text text-anchor="middle" x="726" y="-99.8" font-family="Times,serif" font-size="14.00">PrivacyPolicyComponent</text>
</g>
<!-- PrivacyPolicyComponent&#45;&gt;AppModule -->
<g id="edge15" class="edge">
<title>PrivacyPolicyComponent&#45;&gt;AppModule</title>
<path fill="none" stroke="black" d="M726,-122.22C726,-142.37 726,-172 726,-172 726,-172 1850.15,-172 1850.15,-172"/>
<polygon fill="black" stroke="black" points="1850.15,-175.5 1860.15,-172 1850.15,-168.5 1850.15,-175.5"/>
</g>
<!-- ResetPasswordComponent -->
<g id="node16" class="node">
<title>ResetPasswordComponent</title>
<polygon fill="#ffffb3" stroke="black" points="628.09,-122 461.91,-122 461.91,-86 628.09,-86 628.09,-122"/>
<text text-anchor="middle" x="545" y="-99.8" font-family="Times,serif" font-size="14.00">ResetPasswordComponent</text>
</g>
<!-- ResetPasswordComponent&#45;&gt;AppModule -->
<g id="edge16" class="edge">
<title>ResetPasswordComponent&#45;&gt;AppModule</title>
<path fill="none" stroke="black" d="M545,-122.28C545,-143.32 545,-175 545,-175 545,-175 1850.27,-175 1850.27,-175"/>
<polygon fill="black" stroke="black" points="1850.27,-178.5 1860.27,-175 1850.27,-171.5 1850.27,-178.5"/>
</g>
<!-- SidebarComponent -->
<g id="node17" class="node">
<title>SidebarComponent</title>
<polygon fill="#ffffb3" stroke="black" points="444.1,-122 319.9,-122 319.9,-86 444.1,-86 444.1,-122"/>
<text text-anchor="middle" x="382" y="-99.8" font-family="Times,serif" font-size="14.00">SidebarComponent</text>
</g>
<!-- SidebarComponent&#45;&gt;AppModule -->
<g id="edge17" class="edge">
<title>SidebarComponent&#45;&gt;AppModule</title>
<path fill="none" stroke="black" d="M382,-122.29C382,-144.21 382,-178 382,-178 382,-178 1850.16,-178 1850.16,-178"/>
<polygon fill="black" stroke="black" points="1850.16,-181.5 1860.16,-178 1850.16,-174.5 1850.16,-181.5"/>
</g>
<!-- SignUpComponent -->
<g id="node18" class="node">
<title>SignUpComponent</title>
<polygon fill="#ffffb3" stroke="black" points="302.11,-122 177.89,-122 177.89,-86 302.11,-86 302.11,-122"/>
<text text-anchor="middle" x="240" y="-99.8" font-family="Times,serif" font-size="14.00">SignUpComponent</text>
</g>
<!-- SignUpComponent&#45;&gt;AppModule -->
<g id="edge18" class="edge">
<title>SignUpComponent&#45;&gt;AppModule</title>
<path fill="none" stroke="black" d="M240,-122.25C240,-145.02 240,-181 240,-181 240,-181 1850.09,-181 1850.09,-181"/>
<polygon fill="black" stroke="black" points="1850.09,-184.5 1860.09,-181 1850.09,-177.5 1850.09,-184.5"/>
</g>
<!-- SummaryComponent -->
<g id="node19" class="node">
<title>SummaryComponent</title>
<polygon fill="#ffffb3" stroke="black" points="159.77,-122 24.23,-122 24.23,-86 159.77,-86 159.77,-122"/>
<text text-anchor="middle" x="92" y="-99.8" font-family="Times,serif" font-size="14.00">SummaryComponent</text>
</g>
<!-- SummaryComponent&#45;&gt;AppModule -->
<g id="edge19" class="edge">
<title>SummaryComponent&#45;&gt;AppModule</title>
<path fill="none" stroke="black" d="M92,-122.15C92,-145.76 92,-184 92,-184 92,-184 1849.92,-184 1849.92,-184"/>
<polygon fill="black" stroke="black" points="1849.92,-187.5 1859.92,-184 1849.92,-180.5 1849.92,-187.5"/>
</g>
<!-- AppComponent  -->
<g id="node22" class="node">
<title>AppComponent </title>
<polygon fill="#80b1d3" stroke="black" points="1956.44,-252 1847.56,-252 1847.56,-216 1956.44,-216 1956.44,-252"/>
<text text-anchor="middle" x="1902" y="-229.8" font-family="Times,serif" font-size="14.00">AppComponent </text>
</g>
<!-- AppModule&#45;&gt;AppComponent  -->
<g id="edge21" class="edge">
<title>AppModule&#45;&gt;AppComponent </title>
<path fill="none" stroke="black" stroke-dasharray="1,5" d="M1902,-187.11C1902,-187.11 1902,-205.99 1902,-205.99"/>
<polygon fill="black" stroke="black" points="1898.5,-205.99 1902,-215.99 1905.5,-205.99 1898.5,-205.99"/>
</g>
<!-- AppRoutingModule -->
<g id="node21" class="node">
<title>AppRoutingModule</title>
<polygon fill="#8dd3c7" stroke="black" points="3288.27,-122 3285.27,-126 3264.27,-126 3261.27,-122 3159.73,-122 3159.73,-86 3288.27,-86 3288.27,-122"/>
<text text-anchor="middle" x="3224" y="-99.8" font-family="Times,serif" font-size="14.00">AppRoutingModule</text>
</g>
<!-- AppRoutingModule&#45;&gt;AppModule -->
<g id="edge20" class="edge">
<title>AppRoutingModule&#45;&gt;AppModule</title>
<path fill="none" stroke="black" d="M3224,-122.28C3224,-143.32 3224,-175 3224,-175 3224,-175 1953.75,-175 1953.75,-175"/>
<polygon fill="black" stroke="black" points="1953.75,-171.5 1943.75,-175 1953.75,-178.5 1953.75,-171.5"/>
</g>
<!-- AuthInterceptor -->
<g id="node23" class="node">
<title>AuthInterceptor</title>
<ellipse fill="#fdb462" stroke="black" cx="3748" cy="-104" rx="72.91" ry="18"/>
<text text-anchor="middle" x="3748" y="-99.8" font-family="Times,serif" font-size="14.00">AuthInterceptor</text>
</g>
<!-- AuthInterceptor&#45;&gt;AppModule -->
<g id="edge22" class="edge">
<title>AuthInterceptor&#45;&gt;AppModule</title>
<path fill="none" stroke="black" d="M3748,-122.15C3748,-145.76 3748,-184 3748,-184 3748,-184 1954.02,-184 1954.02,-184"/>
<polygon fill="black" stroke="black" points="1954.02,-180.5 1944.02,-184 1954.02,-187.5 1954.02,-180.5"/>
</g>
<!-- UserRegistrationService -->
<g id="node24" class="node">
<title>UserRegistrationService</title>
<ellipse fill="#fdb462" stroke="black" cx="3552" cy="-104" rx="105.35" ry="18"/>
<text text-anchor="middle" x="3552" y="-99.8" font-family="Times,serif" font-size="14.00">UserRegistrationService</text>
</g>
<!-- UserRegistrationService&#45;&gt;AppModule -->
<g id="edge23" class="edge">
<title>UserRegistrationService&#45;&gt;AppModule</title>
<path fill="none" stroke="black" d="M3552,-122.25C3552,-145.02 3552,-181 3552,-181 3552,-181 1954.03,-181 1954.03,-181"/>
<polygon fill="black" stroke="black" points="1954.03,-177.5 1944.03,-181 1954.03,-184.5 1954.03,-177.5"/>
</g>
<!-- UserService -->
<g id="node25" class="node">
<title>UserService</title>
<ellipse fill="#fdb462" stroke="black" cx="3370" cy="-104" rx="58.44" ry="18"/>
<text text-anchor="middle" x="3370" y="-99.8" font-family="Times,serif" font-size="14.00">UserService</text>
</g>
<!-- UserService&#45;&gt;AppModule -->
<g id="edge24" class="edge">
<title>UserService&#45;&gt;AppModule</title>
<path fill="none" stroke="black" d="M3370,-122.29C3370,-144.21 3370,-178 3370,-178 3370,-178 1953.96,-178 1953.96,-178"/>
<polygon fill="black" stroke="black" points="1953.96,-174.5 1943.96,-178 1953.96,-181.5 1953.96,-174.5"/>
</g>
</g>
</svg>
