<?xml version="1.0" encoding="UTF-8" standalone="no"?>
<!DOCTYPE svg PUBLIC "-//W3C//DTD SVG 1.1//EN"
 "http://www.w3.org/Graphics/SVG/1.1/DTD/svg11.dtd">
<!-- Generated by graphviz version 2.47.0 (20210316.0004)
 -->
<!-- Title: dependencies Pages: 1 -->
<svg width="3669pt" height="284pt"
 viewBox="0.00 0.00 3669.00 284.00" xmlns="http://www.w3.org/2000/svg" xmlns:xlink="http://www.w3.org/1999/xlink">
<g id="graph0" class="graph" transform="scale(1 1) rotate(0) translate(4 280)">
<title>dependencies</title>
<polygon fill="white" stroke="transparent" points="-4,4 -4,-280 3665,-280 3665,4 -4,4"/>
<text text-anchor="start" x="1809.51" y="-42.4" font-family="Times-12" font-weight="bold" font-size="14.00">Legend</text>
<polygon fill="#ffffb3" stroke="transparent" points="1596.5,-10 1596.5,-30 1616.5,-30 1616.5,-10 1596.5,-10"/>
<text text-anchor="start" x="1620.13" y="-15.4" font-family="Times-12" font-size="14.00"> &#160;Declarations</text>
<polygon fill="#8dd3c7" stroke="transparent" points="1709.5,-10 1709.5,-30 1729.5,-30 1729.5,-10 1709.5,-10"/>
<text text-anchor="start" x="1733.23" y="-15.4" font-family="Times-12" font-size="14.00"> &#160;Module</text>
<polygon fill="#80b1d3" stroke="transparent" points="1795.5,-10 1795.5,-30 1815.5,-30 1815.5,-10 1795.5,-10"/>
<text text-anchor="start" x="1819.28" y="-15.4" font-family="Times-12" font-size="14.00"> &#160;Bootstrap</text>
<polygon fill="#fdb462" stroke="transparent" points="1892.5,-10 1892.5,-30 1912.5,-30 1912.5,-10 1892.5,-10"/>
<text text-anchor="start" x="1916.17" y="-15.4" font-family="Times-12" font-size="14.00"> &#160;Providers</text>
<polygon fill="#fb8072" stroke="transparent" points="1988.5,-10 1988.5,-30 2008.5,-30 2008.5,-10 1988.5,-10"/>
<text text-anchor="start" x="2012.23" y="-15.4" font-family="Times-12" font-size="14.00"> &#160;Exports</text>
<g id="clust1" class="cluster">
<title>cluster_AppModule</title>
<polygon fill="none" stroke="black" stroke-dasharray="1,5" points="8,-70 8,-268 3653,-268 3653,-70 8,-70"/>
</g>
<g id="clust23" class="cluster">
<title>cluster_AppModule_bootstrap</title>
<polygon fill="none" stroke="black" points="1744,-208 1744,-260 1868,-260 1868,-208 1744,-208"/>
</g>
<g id="clust24" class="cluster">
<title>cluster_AppModule_providers</title>
<polygon fill="none" stroke="black" points="3120,-78 3120,-130 3645,-130 3645,-78 3120,-78"/>
</g>
<g id="clust21" class="cluster">
<title>cluster_AppModule_imports</title>
<polygon fill="none" stroke="black" points="2968,-78 2968,-130 3112,-130 3112,-78 2968,-78"/>
</g>
<g id="clust2" class="cluster">
<title>cluster_AppModule_declarations</title>
<polygon fill="none" stroke="black" points="16,-78 16,-130 2960,-130 2960,-78 16,-78"/>
</g>
<!-- AddTaskComponent -->
<g id="node1" class="node">
<title>AddTaskComponent</title>
<polygon fill="#ffffb3" stroke="black" points="2952.15,-122 2819.85,-122 2819.85,-86 2952.15,-86 2952.15,-122"/>
<text text-anchor="middle" x="2886" y="-99.8" font-family="Times,serif" font-size="14.00">AddTaskComponent</text>
</g>
<!-- AppModule -->
<g id="node19" class="node">
<title>AppModule</title>
<polygon fill="#8dd3c7" stroke="black" points="1847.66,-187 1844.66,-191 1823.66,-191 1820.66,-187 1764.34,-187 1764.34,-151 1847.66,-151 1847.66,-187"/>
<text text-anchor="middle" x="1806" y="-164.8" font-family="Times,serif" font-size="14.00">AppModule</text>
</g>
<!-- AddTaskComponent&#45;&gt;AppModule -->
<g id="edge1" class="edge">
<title>AddTaskComponent&#45;&gt;AppModule</title>
<path fill="none" stroke="black" d="M2886,-122.31C2886,-142.15 2886,-171 2886,-171 2886,-171 1857.68,-171 1857.68,-171"/>
<polygon fill="black" stroke="black" points="1857.68,-167.5 1847.68,-171 1857.68,-174.5 1857.68,-167.5"/>
</g>
<!-- AppComponent -->
<g id="node2" class="node">
<title>AppComponent</title>
<polygon fill="#ffffb3" stroke="black" points="2801.94,-122 2696.06,-122 2696.06,-86 2801.94,-86 2801.94,-122"/>
<text text-anchor="middle" x="2749" y="-99.8" font-family="Times,serif" font-size="14.00">AppComponent</text>
</g>
<!-- AppComponent&#45;&gt;AppModule -->
<g id="edge2" class="edge">
<title>AppComponent&#45;&gt;AppModule</title>
<path fill="none" stroke="black" d="M2749,-122.17C2749,-141.09 2749,-168 2749,-168 2749,-168 1857.74,-168 1857.74,-168"/>
<polygon fill="black" stroke="black" points="1857.74,-164.5 1847.74,-168 1857.74,-171.5 1857.74,-164.5"/>
</g>
<!-- BoardComponent -->
<g id="node3" class="node">
<title>BoardComponent</title>
<polygon fill="#ffffb3" stroke="black" points="2678.55,-122 2563.45,-122 2563.45,-86 2678.55,-86 2678.55,-122"/>
<text text-anchor="middle" x="2621" y="-99.8" font-family="Times,serif" font-size="14.00">BoardComponent</text>
</g>
<!-- BoardComponent&#45;&gt;AppModule -->
<g id="edge3" class="edge">
<title>BoardComponent&#45;&gt;AppModule</title>
<path fill="none" stroke="black" d="M2621,-122.3C2621,-140.27 2621,-165 2621,-165 2621,-165 1857.82,-165 1857.82,-165"/>
<polygon fill="black" stroke="black" points="1857.82,-161.5 1847.82,-165 1857.82,-168.5 1857.82,-161.5"/>
</g>
<!-- BoardTaskOverlayComponent -->
<g id="node4" class="node">
<title>BoardTaskOverlayComponent</title>
<polygon fill="#ffffb3" stroke="black" points="2544.84,-122 2357.16,-122 2357.16,-86 2544.84,-86 2544.84,-122"/>
<text text-anchor="middle" x="2451" y="-99.8" font-family="Times,serif" font-size="14.00">BoardTaskOverlayComponent</text>
</g>
<!-- BoardTaskOverlayComponent&#45;&gt;AppModule -->
<g id="edge4" class="edge">
<title>BoardTaskOverlayComponent&#45;&gt;AppModule</title>
<path fill="none" stroke="black" d="M2451,-122.04C2451,-138.73 2451,-161 2451,-161 2451,-161 1857.82,-161 1857.82,-161"/>
<polygon fill="black" stroke="black" points="1857.82,-157.5 1847.82,-161 1857.82,-164.5 1857.82,-157.5"/>
</g>
<!-- ContactsAddComponent -->
<g id="node5" class="node">
<title>ContactsAddComponent</title>
<polygon fill="#ffffb3" stroke="black" points="2339.43,-122 2184.57,-122 2184.57,-86 2339.43,-86 2339.43,-122"/>
<text text-anchor="middle" x="2262" y="-99.8" font-family="Times,serif" font-size="14.00">ContactsAddComponent</text>
</g>
<!-- ContactsAddComponent&#45;&gt;AppModule -->
<g id="edge5" class="edge">
<title>ContactsAddComponent&#45;&gt;AppModule</title>
<path fill="none" stroke="black" d="M2262,-122.28C2262,-137.95 2262,-158 2262,-158 2262,-158 1857.68,-158 1857.68,-158"/>
<polygon fill="black" stroke="black" points="1857.68,-154.5 1847.68,-158 1857.68,-161.5 1857.68,-154.5"/>
</g>
<!-- ContactsEditComponent -->
<g id="node6" class="node">
<title>ContactsEditComponent</title>
<polygon fill="#ffffb3" stroke="black" points="2166.66,-122 2013.34,-122 2013.34,-86 2166.66,-86 2166.66,-122"/>
<text text-anchor="middle" x="2090" y="-99.8" font-family="Times,serif" font-size="14.00">ContactsEditComponent</text>
</g>
<!-- ContactsEditComponent&#45;&gt;AppModule -->
<g id="edge6" class="edge">
<title>ContactsEditComponent&#45;&gt;AppModule</title>
<path fill="none" stroke="black" d="M2090,-122.12C2090,-136.78 2090,-155 2090,-155 2090,-155 1857.91,-155 1857.91,-155"/>
<polygon fill="black" stroke="black" points="1857.91,-151.5 1847.91,-155 1857.91,-158.5 1857.91,-151.5"/>
</g>
<!-- ContactsOverviewComponent -->
<g id="node7" class="node">
<title>ContactsOverviewComponent</title>
<polygon fill="#ffffb3" stroke="black" points="1994.52,-122 1809.48,-122 1809.48,-86 1994.52,-86 1994.52,-122"/>
<text text-anchor="middle" x="1902" y="-99.8" font-family="Times,serif" font-size="14.00">ContactsOverviewComponent</text>
</g>
<!-- ContactsOverviewComponent&#45;&gt;AppModule -->
<g id="edge7" class="edge">
<title>ContactsOverviewComponent&#45;&gt;AppModule</title>
<path fill="none" stroke="black" d="M1828.53,-122.11C1828.53,-122.11 1828.53,-140.99 1828.53,-140.99"/>
<polygon fill="black" stroke="black" points="1825.03,-140.99 1828.53,-150.99 1832.03,-140.99 1825.03,-140.99"/>
</g>
<!-- ContactsViewComponent -->
<g id="node8" class="node">
<title>ContactsViewComponent</title>
<polygon fill="#ffffb3" stroke="black" points="1791.14,-122 1630.86,-122 1630.86,-86 1791.14,-86 1791.14,-122"/>
<text text-anchor="middle" x="1711" y="-99.8" font-family="Times,serif" font-size="14.00">ContactsViewComponent</text>
</g>
<!-- ContactsViewComponent&#45;&gt;AppModule -->
<g id="edge8" class="edge">
<title>ContactsViewComponent&#45;&gt;AppModule</title>
<path fill="none" stroke="black" d="M1777.75,-122.11C1777.75,-122.11 1777.75,-140.99 1777.75,-140.99"/>
<polygon fill="black" stroke="black" points="1774.25,-140.99 1777.75,-150.99 1781.25,-140.99 1774.25,-140.99"/>
</g>
<!-- EditTaskComponent -->
<g id="node9" class="node">
<title>EditTaskComponent</title>
<polygon fill="#ffffb3" stroke="black" points="1612.88,-122 1481.12,-122 1481.12,-86 1612.88,-86 1612.88,-122"/>
<text text-anchor="middle" x="1547" y="-99.8" font-family="Times,serif" font-size="14.00">EditTaskComponent</text>
</g>
<!-- EditTaskComponent&#45;&gt;AppModule -->
<g id="edge9" class="edge">
<title>EditTaskComponent&#45;&gt;AppModule</title>
<path fill="none" stroke="black" d="M1547,-122.12C1547,-136.78 1547,-155 1547,-155 1547,-155 1754.1,-155 1754.1,-155"/>
<polygon fill="black" stroke="black" points="1754.1,-158.5 1764.1,-155 1754.1,-151.5 1754.1,-158.5"/>
</g>
<!-- FooterBarComponent -->
<g id="node10" class="node">
<title>FooterBarComponent</title>
<polygon fill="#ffffb3" stroke="black" points="1463.09,-122 1324.91,-122 1324.91,-86 1463.09,-86 1463.09,-122"/>
<text text-anchor="middle" x="1394" y="-99.8" font-family="Times,serif" font-size="14.00">FooterBarComponent</text>
</g>
<!-- FooterBarComponent&#45;&gt;AppModule -->
<g id="edge10" class="edge">
<title>FooterBarComponent&#45;&gt;AppModule</title>
<path fill="none" stroke="black" d="M1394,-122.28C1394,-137.95 1394,-158 1394,-158 1394,-158 1754.23,-158 1754.23,-158"/>
<polygon fill="black" stroke="black" points="1754.23,-161.5 1764.23,-158 1754.23,-154.5 1754.23,-161.5"/>
</g>
<!-- HeaderBarMobileComponent -->
<g id="node11" class="node">
<title>HeaderBarMobileComponent</title>
<polygon fill="#ffffb3" stroke="black" points="1307.4,-122 1124.6,-122 1124.6,-86 1307.4,-86 1307.4,-122"/>
<text text-anchor="middle" x="1216" y="-99.8" font-family="Times,serif" font-size="14.00">HeaderBarMobileComponent</text>
</g>
<!-- HeaderBarMobileComponent&#45;&gt;AppModule -->
<g id="edge11" class="edge">
<title>HeaderBarMobileComponent&#45;&gt;AppModule</title>
<path fill="none" stroke="black" d="M1216,-122.04C1216,-138.73 1216,-161 1216,-161 1216,-161 1754.04,-161 1754.04,-161"/>
<polygon fill="black" stroke="black" points="1754.04,-164.5 1764.04,-161 1754.04,-157.5 1754.04,-164.5"/>
</g>
<!-- LegalNoticeComponent -->
<g id="node12" class="node">
<title>LegalNoticeComponent</title>
<polygon fill="#ffffb3" stroke="black" points="1107.02,-122 956.98,-122 956.98,-86 1107.02,-86 1107.02,-122"/>
<text text-anchor="middle" x="1032" y="-99.8" font-family="Times,serif" font-size="14.00">LegalNoticeComponent</text>
</g>
<!-- LegalNoticeComponent&#45;&gt;AppModule -->
<g id="edge12" class="edge">
<title>LegalNoticeComponent&#45;&gt;AppModule</title>
<path fill="none" stroke="black" d="M1032,-122.3C1032,-140.27 1032,-165 1032,-165 1032,-165 1754.11,-165 1754.11,-165"/>
<polygon fill="black" stroke="black" points="1754.11,-168.5 1764.11,-165 1754.11,-161.5 1754.11,-168.5"/>
</g>
<!-- LoginComponent -->
<g id="node13" class="node">
<title>LoginComponent</title>
<polygon fill="#ffffb3" stroke="black" points="938.28,-122 823.72,-122 823.72,-86 938.28,-86 938.28,-122"/>
<text text-anchor="middle" x="881" y="-99.8" font-family="Times,serif" font-size="14.00">LoginComponent</text>
</g>
<!-- LoginComponent&#45;&gt;AppModule -->
<g id="edge13" class="edge">
<title>LoginComponent&#45;&gt;AppModule</title>
<path fill="none" stroke="black" d="M881,-122.17C881,-141.09 881,-168 881,-168 881,-168 1754.15,-168 1754.15,-168"/>
<polygon fill="black" stroke="black" points="1754.15,-171.5 1764.15,-168 1754.15,-164.5 1754.15,-171.5"/>
</g>
<!-- PrivacyPolicyComponent -->
<g id="node14" class="node">
<title>PrivacyPolicyComponent</title>
<polygon fill="#ffffb3" stroke="black" points="805.87,-122 646.13,-122 646.13,-86 805.87,-86 805.87,-122"/>
<text text-anchor="middle" x="726" y="-99.8" font-family="Times,serif" font-size="14.00">PrivacyPolicyComponent</text>
</g>
<!-- PrivacyPolicyComponent&#45;&gt;AppModule -->
<g id="edge14" class="edge">
<title>PrivacyPolicyComponent&#45;&gt;AppModule</title>
<path fill="none" stroke="black" d="M726,-122.31C726,-142.15 726,-171 726,-171 726,-171 1754.32,-171 1754.32,-171"/>
<polygon fill="black" stroke="black" points="1754.32,-174.5 1764.32,-171 1754.32,-167.5 1754.32,-174.5"/>
</g>
<!-- ResetPasswordComponent -->
<g id="node15" class="node">
<title>ResetPasswordComponent</title>
<polygon fill="#ffffb3" stroke="black" points="628.09,-122 461.91,-122 461.91,-86 628.09,-86 628.09,-122"/>
<text text-anchor="middle" x="545" y="-99.8" font-family="Times,serif" font-size="14.00">ResetPasswordComponent</text>
</g>
<!-- ResetPasswordComponent&#45;&gt;AppModule -->
<g id="edge15" class="edge">
<title>ResetPasswordComponent&#45;&gt;AppModule</title>
<path fill="none" stroke="black" d="M545,-122.03C545,-142.77 545,-174 545,-174 545,-174 1754.04,-174 1754.04,-174"/>
<polygon fill="black" stroke="black" points="1754.04,-177.5 1764.04,-174 1754.04,-170.5 1754.04,-177.5"/>
</g>
<!-- SidebarComponent -->
<g id="node16" class="node">
<title>SidebarComponent</title>
<polygon fill="#ffffb3" stroke="black" points="444.1,-122 319.9,-122 319.9,-86 444.1,-86 444.1,-122"/>
<text text-anchor="middle" x="382" y="-99.8" font-family="Times,serif" font-size="14.00">SidebarComponent</text>
</g>
<!-- SidebarComponent&#45;&gt;AppModule -->
<g id="edge16" class="edge">
<title>SidebarComponent&#45;&gt;AppModule</title>
<path fill="none" stroke="black" d="M382,-122.29C382,-144.21 382,-178 382,-178 382,-178 1754.15,-178 1754.15,-178"/>
<polygon fill="black" stroke="black" points="1754.15,-181.5 1764.15,-178 1754.15,-174.5 1754.15,-181.5"/>
</g>
<!-- SignUpComponent -->
<g id="node17" class="node">
<title>SignUpComponent</title>
<polygon fill="#ffffb3" stroke="black" points="302.11,-122 177.89,-122 177.89,-86 302.11,-86 302.11,-122"/>
<text text-anchor="middle" x="240" y="-99.8" font-family="Times,serif" font-size="14.00">SignUpComponent</text>
</g>
<!-- SignUpComponent&#45;&gt;AppModule -->
<g id="edge17" class="edge">
<title>SignUpComponent&#45;&gt;AppModule</title>
<path fill="none" stroke="black" d="M240,-122.25C240,-145.02 240,-181 240,-181 240,-181 1754.11,-181 1754.11,-181"/>
<polygon fill="black" stroke="black" points="1754.11,-184.5 1764.11,-181 1754.11,-177.5 1754.11,-184.5"/>
</g>
<!-- SummaryComponent -->
<g id="node18" class="node">
<title>SummaryComponent</title>
<polygon fill="#ffffb3" stroke="black" points="159.77,-122 24.23,-122 24.23,-86 159.77,-86 159.77,-122"/>
<text text-anchor="middle" x="92" y="-99.8" font-family="Times,serif" font-size="14.00">SummaryComponent</text>
</g>
<!-- SummaryComponent&#45;&gt;AppModule -->
<g id="edge18" class="edge">
<title>SummaryComponent&#45;&gt;AppModule</title>
<path fill="none" stroke="black" d="M92,-122.15C92,-145.76 92,-184 92,-184 92,-184 1754.06,-184 1754.06,-184"/>
<polygon fill="black" stroke="black" points="1754.06,-187.5 1764.06,-184 1754.06,-180.5 1754.06,-187.5"/>
</g>
<!-- AppComponent  -->
<g id="node21" class="node">
<title>AppComponent </title>
<polygon fill="#80b1d3" stroke="black" points="1860.44,-252 1751.56,-252 1751.56,-216 1860.44,-216 1860.44,-252"/>
<text text-anchor="middle" x="1806" y="-229.8" font-family="Times,serif" font-size="14.00">AppComponent </text>
</g>
<!-- AppModule&#45;&gt;AppComponent  -->
<g id="edge20" class="edge">
<title>AppModule&#45;&gt;AppComponent </title>
<path fill="none" stroke="black" stroke-dasharray="1,5" d="M1806,-187.11C1806,-187.11 1806,-205.99 1806,-205.99"/>
<polygon fill="black" stroke="black" points="1802.5,-205.99 1806,-215.99 1809.5,-205.99 1802.5,-205.99"/>
</g>
<!-- AppRoutingModule -->
<g id="node20" class="node">
<title>AppRoutingModule</title>
<polygon fill="#8dd3c7" stroke="black" points="3104.27,-122 3101.27,-126 3080.27,-126 3077.27,-122 2975.73,-122 2975.73,-86 3104.27,-86 3104.27,-122"/>
<text text-anchor="middle" x="3040" y="-99.8" font-family="Times,serif" font-size="14.00">AppRoutingModule</text>
</g>
<!-- AppRoutingModule&#45;&gt;AppModule -->
<g id="edge19" class="edge">
<title>AppRoutingModule&#45;&gt;AppModule</title>
<path fill="none" stroke="black" d="M3040,-122.03C3040,-142.77 3040,-174 3040,-174 3040,-174 1857.76,-174 1857.76,-174"/>
<polygon fill="black" stroke="black" points="1857.76,-170.5 1847.76,-174 1857.76,-177.5 1857.76,-170.5"/>
</g>
<!-- AuthInterceptor -->
<g id="node22" class="node">
<title>AuthInterceptor</title>
<ellipse fill="#fdb462" stroke="black" cx="3564" cy="-104" rx="72.91" ry="18"/>
<text text-anchor="middle" x="3564" y="-99.8" font-family="Times,serif" font-size="14.00">AuthInterceptor</text>
</g>
<!-- AuthInterceptor&#45;&gt;AppModule -->
<g id="edge21" class="edge">
<title>AuthInterceptor&#45;&gt;AppModule</title>
<path fill="none" stroke="black" d="M3564,-122.15C3564,-145.76 3564,-184 3564,-184 3564,-184 1857.72,-184 1857.72,-184"/>
<polygon fill="black" stroke="black" points="1857.72,-180.5 1847.72,-184 1857.72,-187.5 1857.72,-180.5"/>
</g>
<!-- UserRegistrationService -->
<g id="node23" class="node">
<title>UserRegistrationService</title>
<ellipse fill="#fdb462" stroke="black" cx="3368" cy="-104" rx="105.35" ry="18"/>
<text text-anchor="middle" x="3368" y="-99.8" font-family="Times,serif" font-size="14.00">UserRegistrationService</text>
</g>
<!-- UserRegistrationService&#45;&gt;AppModule -->
<g id="edge22" class="edge">
<title>UserRegistrationService&#45;&gt;AppModule</title>
<path fill="none" stroke="black" d="M3368,-122.25C3368,-145.02 3368,-181 3368,-181 3368,-181 1857.78,-181 1857.78,-181"/>
<polygon fill="black" stroke="black" points="1857.78,-177.5 1847.78,-181 1857.78,-184.5 1857.78,-177.5"/>
</g>
<!-- UserService -->
<g id="node24" class="node">
<title>UserService</title>
<ellipse fill="#fdb462" stroke="black" cx="3186" cy="-104" rx="58.44" ry="18"/>
<text text-anchor="middle" x="3186" y="-99.8" font-family="Times,serif" font-size="14.00">UserService</text>
</g>
<!-- UserService&#45;&gt;AppModule -->
<g id="edge23" class="edge">
<title>UserService&#45;&gt;AppModule</title>
<path fill="none" stroke="black" d="M3186,-122.29C3186,-144.21 3186,-178 3186,-178 3186,-178 1857.68,-178 1857.68,-178"/>
<polygon fill="black" stroke="black" points="1857.68,-174.5 1847.68,-178 1857.68,-181.5 1857.68,-174.5"/>
</g>
</g>
</svg>
