<?xml version="1.0" encoding="UTF-8" standalone="no"?>
<!DOCTYPE svg PUBLIC "-//W3C//DTD SVG 1.1//EN"
 "http://www.w3.org/Graphics/SVG/1.1/DTD/svg11.dtd">
<!-- Generated by graphviz version 2.47.0 (20210316.0004)
 -->
<!-- Title: dependencies Pages: 1 -->
<svg width="3669pt" height="284pt"
 viewBox="0.00 0.00 3669.00 284.00" xmlns="http://www.w3.org/2000/svg" xmlns:xlink="http://www.w3.org/1999/xlink">
<g id="graph0" class="graph" transform="scale(1 1) rotate(0) translate(4 280)">
<title>dependencies</title>
<polygon fill="white" stroke="transparent" points="-4,4 -4,-280 3665,-280 3665,4 -4,4"/>
<text text-anchor="start" x="1809.51" y="-42.4" font-family="Times-12" font-weight="bold" font-size="14.00">Legend</text>
<polygon fill="#ffffb3" stroke="transparent" points="1596.5,-10 1596.5,-30 1616.5,-30 1616.5,-10 1596.5,-10"/>
<text text-anchor="start" x="1620.13" y="-15.4" font-family="Times-12" font-size="14.00"> &#160;Declarations</text>
<polygon fill="#8dd3c7" stroke="transparent" points="1709.5,-10 1709.5,-30 1729.5,-30 1729.5,-10 1709.5,-10"/>
<text text-anchor="start" x="1733.23" y="-15.4" font-family="Times-12" font-size="14.00"> &#160;Module</text>
<polygon fill="#80b1d3" stroke="transparent" points="1795.5,-10 1795.5,-30 1815.5,-30 1815.5,-10 1795.5,-10"/>
<text text-anchor="start" x="1819.28" y="-15.4" font-family="Times-12" font-size="14.00"> &#160;Bootstrap</text>
<polygon fill="#fdb462" stroke="transparent" points="1892.5,-10 1892.5,-30 1912.5,-30 1912.5,-10 1892.5,-10"/>
<text text-anchor="start" x="1916.17" y="-15.4" font-family="Times-12" font-size="14.00"> &#160;Providers</text>
<polygon fill="#fb8072" stroke="transparent" points="1988.5,-10 1988.5,-30 2008.5,-30 2008.5,-10 1988.5,-10"/>
<text text-anchor="start" x="2012.23" y="-15.4" font-family="Times-12" font-size="14.00"> &#160;Exports</text>
<g id="clust1" class="cluster">
<title>cluster_AppModule</title>
<polygon fill="none" stroke="black" stroke-dasharray="1,5" points="8,-70 8,-268 3653,-268 3653,-70 8,-70"/>
</g>
<g id="clust2" class="cluster">
<title>cluster_AppModule_declarations</title>
<polygon fill="none" stroke="black" points="701,-78 701,-130 3645,-130 3645,-78 701,-78"/>
</g>
<g id="clust21" class="cluster">
<title>cluster_AppModule_imports</title>
<polygon fill="none" stroke="black" points="549,-78 549,-130 693,-130 693,-78 549,-78"/>
</g>
<g id="clust23" class="cluster">
<title>cluster_AppModule_bootstrap</title>
<polygon fill="none" stroke="black" points="1747,-208 1747,-260 1871,-260 1871,-208 1747,-208"/>
</g>
<g id="clust24" class="cluster">
<title>cluster_AppModule_providers</title>
<polygon fill="none" stroke="black" points="16,-78 16,-130 541,-130 541,-78 16,-78"/>
</g>
<!-- AddTaskComponent -->
<g id="node1" class="node">
<title>AddTaskComponent</title>
<polygon fill="#ffffb3" stroke="black" points="3637.15,-122 3504.85,-122 3504.85,-86 3637.15,-86 3637.15,-122"/>
<text text-anchor="middle" x="3571" y="-99.8" font-family="Times,serif" font-size="14.00">AddTaskComponent</text>
</g>
<!-- AppModule -->
<g id="node19" class="node">
<title>AppModule</title>
<polygon fill="#8dd3c7" stroke="black" points="1850.66,-187 1847.66,-191 1826.66,-191 1823.66,-187 1767.34,-187 1767.34,-151 1850.66,-151 1850.66,-187"/>
<text text-anchor="middle" x="1809" y="-164.8" font-family="Times,serif" font-size="14.00">AppModule</text>
</g>
<!-- AddTaskComponent&#45;&gt;AppModule -->
<g id="edge1" class="edge">
<title>AddTaskComponent&#45;&gt;AppModule</title>
<path fill="none" stroke="black" d="M3571,-122.15C3571,-145.76 3571,-184 3571,-184 3571,-184 1860.82,-184 1860.82,-184"/>
<polygon fill="black" stroke="black" points="1860.82,-180.5 1850.82,-184 1860.82,-187.5 1860.82,-180.5"/>
</g>
<!-- AppComponent -->
<g id="node2" class="node">
<title>AppComponent</title>
<polygon fill="#ffffb3" stroke="black" points="3486.94,-122 3381.06,-122 3381.06,-86 3486.94,-86 3486.94,-122"/>
<text text-anchor="middle" x="3434" y="-99.8" font-family="Times,serif" font-size="14.00">AppComponent</text>
</g>
<!-- AppComponent&#45;&gt;AppModule -->
<g id="edge2" class="edge">
<title>AppComponent&#45;&gt;AppModule</title>
<path fill="none" stroke="black" d="M3434,-122.25C3434,-145.02 3434,-181 3434,-181 3434,-181 1860.8,-181 1860.8,-181"/>
<polygon fill="black" stroke="black" points="1860.8,-177.5 1850.8,-181 1860.8,-184.5 1860.8,-177.5"/>
</g>
<!-- BoardComponent -->
<g id="node3" class="node">
<title>BoardComponent</title>
<polygon fill="#ffffb3" stroke="black" points="3363.55,-122 3248.45,-122 3248.45,-86 3363.55,-86 3363.55,-122"/>
<text text-anchor="middle" x="3306" y="-99.8" font-family="Times,serif" font-size="14.00">BoardComponent</text>
</g>
<!-- BoardComponent&#45;&gt;AppModule -->
<g id="edge3" class="edge">
<title>BoardComponent&#45;&gt;AppModule</title>
<path fill="none" stroke="black" d="M3306,-122.29C3306,-144.21 3306,-178 3306,-178 3306,-178 1860.99,-178 1860.99,-178"/>
<polygon fill="black" stroke="black" points="1861,-174.5 1850.99,-178 1860.99,-181.5 1861,-174.5"/>
</g>
<!-- BoardTaskOverlayComponent -->
<g id="node4" class="node">
<title>BoardTaskOverlayComponent</title>
<polygon fill="#ffffb3" stroke="black" points="3229.84,-122 3042.16,-122 3042.16,-86 3229.84,-86 3229.84,-122"/>
<text text-anchor="middle" x="3136" y="-99.8" font-family="Times,serif" font-size="14.00">BoardTaskOverlayComponent</text>
</g>
<!-- BoardTaskOverlayComponent&#45;&gt;AppModule -->
<g id="edge4" class="edge">
<title>BoardTaskOverlayComponent&#45;&gt;AppModule</title>
<path fill="none" stroke="black" d="M3136,-122.03C3136,-142.77 3136,-174 3136,-174 3136,-174 1860.91,-174 1860.91,-174"/>
<polygon fill="black" stroke="black" points="1860.91,-170.5 1850.91,-174 1860.91,-177.5 1860.91,-170.5"/>
</g>
<!-- ContactsAddComponent -->
<g id="node5" class="node">
<title>ContactsAddComponent</title>
<polygon fill="#ffffb3" stroke="black" points="3024.43,-122 2869.57,-122 2869.57,-86 3024.43,-86 3024.43,-122"/>
<text text-anchor="middle" x="2947" y="-99.8" font-family="Times,serif" font-size="14.00">ContactsAddComponent</text>
</g>
<!-- ContactsAddComponent&#45;&gt;AppModule -->
<g id="edge5" class="edge">
<title>ContactsAddComponent&#45;&gt;AppModule</title>
<path fill="none" stroke="black" d="M2947,-122.31C2947,-142.15 2947,-171 2947,-171 2947,-171 1860.85,-171 1860.85,-171"/>
<polygon fill="black" stroke="black" points="1860.85,-167.5 1850.85,-171 1860.85,-174.5 1860.85,-167.5"/>
</g>
<!-- ContactsEditComponent -->
<g id="node6" class="node">
<title>ContactsEditComponent</title>
<polygon fill="#ffffb3" stroke="black" points="2851.66,-122 2698.34,-122 2698.34,-86 2851.66,-86 2851.66,-122"/>
<text text-anchor="middle" x="2775" y="-99.8" font-family="Times,serif" font-size="14.00">ContactsEditComponent</text>
</g>
<!-- ContactsEditComponent&#45;&gt;AppModule -->
<g id="edge6" class="edge">
<title>ContactsEditComponent&#45;&gt;AppModule</title>
<path fill="none" stroke="black" d="M2775,-122.17C2775,-141.09 2775,-168 2775,-168 2775,-168 1860.82,-168 1860.82,-168"/>
<polygon fill="black" stroke="black" points="1860.82,-164.5 1850.82,-168 1860.82,-171.5 1860.82,-164.5"/>
</g>
<!-- ContactsOverviewComponent -->
<g id="node7" class="node">
<title>ContactsOverviewComponent</title>
<polygon fill="#ffffb3" stroke="black" points="2679.52,-122 2494.48,-122 2494.48,-86 2679.52,-86 2679.52,-122"/>
<text text-anchor="middle" x="2587" y="-99.8" font-family="Times,serif" font-size="14.00">ContactsOverviewComponent</text>
</g>
<!-- ContactsOverviewComponent&#45;&gt;AppModule -->
<g id="edge7" class="edge">
<title>ContactsOverviewComponent&#45;&gt;AppModule</title>
<path fill="none" stroke="black" d="M2587,-122.3C2587,-140.27 2587,-165 2587,-165 2587,-165 1860.83,-165 1860.83,-165"/>
<polygon fill="black" stroke="black" points="1860.83,-161.5 1850.83,-165 1860.83,-168.5 1860.83,-161.5"/>
</g>
<!-- ContactsViewComponent -->
<g id="node8" class="node">
<title>ContactsViewComponent</title>
<polygon fill="#ffffb3" stroke="black" points="2476.14,-122 2315.86,-122 2315.86,-86 2476.14,-86 2476.14,-122"/>
<text text-anchor="middle" x="2396" y="-99.8" font-family="Times,serif" font-size="14.00">ContactsViewComponent</text>
</g>
<!-- ContactsViewComponent&#45;&gt;AppModule -->
<g id="edge8" class="edge">
<title>ContactsViewComponent&#45;&gt;AppModule</title>
<path fill="none" stroke="black" d="M2396,-122.04C2396,-138.73 2396,-161 2396,-161 2396,-161 1860.75,-161 1860.75,-161"/>
<polygon fill="black" stroke="black" points="1860.75,-157.5 1850.75,-161 1860.74,-164.5 1860.75,-157.5"/>
</g>
<!-- EditTaskComponent -->
<g id="node9" class="node">
<title>EditTaskComponent</title>
<polygon fill="#ffffb3" stroke="black" points="2297.88,-122 2166.12,-122 2166.12,-86 2297.88,-86 2297.88,-122"/>
<text text-anchor="middle" x="2232" y="-99.8" font-family="Times,serif" font-size="14.00">EditTaskComponent</text>
</g>
<!-- EditTaskComponent&#45;&gt;AppModule -->
<g id="edge9" class="edge">
<title>EditTaskComponent&#45;&gt;AppModule</title>
<path fill="none" stroke="black" d="M2232,-122.28C2232,-137.95 2232,-158 2232,-158 2232,-158 1860.72,-158 1860.72,-158"/>
<polygon fill="black" stroke="black" points="1860.72,-154.5 1850.72,-158 1860.72,-161.5 1860.72,-154.5"/>
</g>
<!-- FooterBarComponent -->
<g id="node10" class="node">
<title>FooterBarComponent</title>
<polygon fill="#ffffb3" stroke="black" points="2148.09,-122 2009.91,-122 2009.91,-86 2148.09,-86 2148.09,-122"/>
<text text-anchor="middle" x="2079" y="-99.8" font-family="Times,serif" font-size="14.00">FooterBarComponent</text>
</g>
<!-- FooterBarComponent&#45;&gt;AppModule -->
<g id="edge10" class="edge">
<title>FooterBarComponent&#45;&gt;AppModule</title>
<path fill="none" stroke="black" d="M2079,-122.12C2079,-136.78 2079,-155 2079,-155 2079,-155 1860.89,-155 1860.89,-155"/>
<polygon fill="black" stroke="black" points="1860.89,-151.5 1850.89,-155 1860.89,-158.5 1860.89,-151.5"/>
</g>
<!-- HeaderBarMobileComponent -->
<g id="node11" class="node">
<title>HeaderBarMobileComponent</title>
<polygon fill="#ffffb3" stroke="black" points="1992.4,-122 1809.6,-122 1809.6,-86 1992.4,-86 1992.4,-122"/>
<text text-anchor="middle" x="1901" y="-99.8" font-family="Times,serif" font-size="14.00">HeaderBarMobileComponent</text>
</g>
<!-- HeaderBarMobileComponent&#45;&gt;AppModule -->
<g id="edge11" class="edge">
<title>HeaderBarMobileComponent&#45;&gt;AppModule</title>
<path fill="none" stroke="black" d="M1830.32,-122.11C1830.32,-122.11 1830.32,-140.99 1830.32,-140.99"/>
<polygon fill="black" stroke="black" points="1826.82,-140.99 1830.32,-150.99 1833.82,-140.99 1826.82,-140.99"/>
</g>
<!-- LegalNoticeComponent -->
<g id="node12" class="node">
<title>LegalNoticeComponent</title>
<polygon fill="#ffffb3" stroke="black" points="1792.02,-122 1641.98,-122 1641.98,-86 1792.02,-86 1792.02,-122"/>
<text text-anchor="middle" x="1717" y="-99.8" font-family="Times,serif" font-size="14.00">LegalNoticeComponent</text>
</g>
<!-- LegalNoticeComponent&#45;&gt;AppModule -->
<g id="edge12" class="edge">
<title>LegalNoticeComponent&#45;&gt;AppModule</title>
<path fill="none" stroke="black" d="M1779.72,-122.11C1779.72,-122.11 1779.72,-140.99 1779.72,-140.99"/>
<polygon fill="black" stroke="black" points="1776.22,-140.99 1779.72,-150.99 1783.22,-140.99 1776.22,-140.99"/>
</g>
<!-- LoginComponent -->
<g id="node13" class="node">
<title>LoginComponent</title>
<polygon fill="#ffffb3" stroke="black" points="1623.28,-122 1508.72,-122 1508.72,-86 1623.28,-86 1623.28,-122"/>
<text text-anchor="middle" x="1566" y="-99.8" font-family="Times,serif" font-size="14.00">LoginComponent</text>
</g>
<!-- LoginComponent&#45;&gt;AppModule -->
<g id="edge13" class="edge">
<title>LoginComponent&#45;&gt;AppModule</title>
<path fill="none" stroke="black" d="M1566,-122.12C1566,-136.78 1566,-155 1566,-155 1566,-155 1757.23,-155 1757.23,-155"/>
<polygon fill="black" stroke="black" points="1757.23,-158.5 1767.23,-155 1757.23,-151.5 1757.23,-158.5"/>
</g>
<!-- PrivacyPolicyComponent -->
<g id="node14" class="node">
<title>PrivacyPolicyComponent</title>
<polygon fill="#ffffb3" stroke="black" points="1490.87,-122 1331.13,-122 1331.13,-86 1490.87,-86 1490.87,-122"/>
<text text-anchor="middle" x="1411" y="-99.8" font-family="Times,serif" font-size="14.00">PrivacyPolicyComponent</text>
</g>
<!-- PrivacyPolicyComponent&#45;&gt;AppModule -->
<g id="edge14" class="edge">
<title>PrivacyPolicyComponent&#45;&gt;AppModule</title>
<path fill="none" stroke="black" d="M1411,-122.28C1411,-137.95 1411,-158 1411,-158 1411,-158 1757.16,-158 1757.16,-158"/>
<polygon fill="black" stroke="black" points="1757.16,-161.5 1767.16,-158 1757.16,-154.5 1757.16,-161.5"/>
</g>
<!-- ResetPasswordComponent -->
<g id="node15" class="node">
<title>ResetPasswordComponent</title>
<polygon fill="#ffffb3" stroke="black" points="1313.09,-122 1146.91,-122 1146.91,-86 1313.09,-86 1313.09,-122"/>
<text text-anchor="middle" x="1230" y="-99.8" font-family="Times,serif" font-size="14.00">ResetPasswordComponent</text>
</g>
<!-- ResetPasswordComponent&#45;&gt;AppModule -->
<g id="edge15" class="edge">
<title>ResetPasswordComponent&#45;&gt;AppModule</title>
<path fill="none" stroke="black" d="M1230,-122.04C1230,-138.73 1230,-161 1230,-161 1230,-161 1756.89,-161 1756.89,-161"/>
<polygon fill="black" stroke="black" points="1756.89,-164.5 1766.89,-161 1756.89,-157.5 1756.89,-164.5"/>
</g>
<!-- SidebarComponent -->
<g id="node16" class="node">
<title>SidebarComponent</title>
<polygon fill="#ffffb3" stroke="black" points="1129.1,-122 1004.9,-122 1004.9,-86 1129.1,-86 1129.1,-122"/>
<text text-anchor="middle" x="1067" y="-99.8" font-family="Times,serif" font-size="14.00">SidebarComponent</text>
</g>
<!-- SidebarComponent&#45;&gt;AppModule -->
<g id="edge16" class="edge">
<title>SidebarComponent&#45;&gt;AppModule</title>
<path fill="none" stroke="black" d="M1067,-122.3C1067,-140.27 1067,-165 1067,-165 1067,-165 1757.25,-165 1757.25,-165"/>
<polygon fill="black" stroke="black" points="1757.25,-168.5 1767.25,-165 1757.25,-161.5 1757.25,-168.5"/>
</g>
<!-- SignUpComponent -->
<g id="node17" class="node">
<title>SignUpComponent</title>
<polygon fill="#ffffb3" stroke="black" points="987.11,-122 862.89,-122 862.89,-86 987.11,-86 987.11,-122"/>
<text text-anchor="middle" x="925" y="-99.8" font-family="Times,serif" font-size="14.00">SignUpComponent</text>
</g>
<!-- SignUpComponent&#45;&gt;AppModule -->
<g id="edge17" class="edge">
<title>SignUpComponent&#45;&gt;AppModule</title>
<path fill="none" stroke="black" d="M925,-122.17C925,-141.09 925,-168 925,-168 925,-168 1757.25,-168 1757.25,-168"/>
<polygon fill="black" stroke="black" points="1757.25,-171.5 1767.25,-168 1757.25,-164.5 1757.25,-171.5"/>
</g>
<!-- SummaryComponent -->
<g id="node18" class="node">
<title>SummaryComponent</title>
<polygon fill="#ffffb3" stroke="black" points="844.77,-122 709.23,-122 709.23,-86 844.77,-86 844.77,-122"/>
<text text-anchor="middle" x="777" y="-99.8" font-family="Times,serif" font-size="14.00">SummaryComponent</text>
</g>
<!-- SummaryComponent&#45;&gt;AppModule -->
<g id="edge18" class="edge">
<title>SummaryComponent&#45;&gt;AppModule</title>
<path fill="none" stroke="black" d="M777,-122.31C777,-142.15 777,-171 777,-171 777,-171 1757.27,-171 1757.27,-171"/>
<polygon fill="black" stroke="black" points="1757.27,-174.5 1767.27,-171 1757.27,-167.5 1757.27,-174.5"/>
</g>
<!-- AppComponent  -->
<g id="node21" class="node">
<title>AppComponent </title>
<polygon fill="#80b1d3" stroke="black" points="1863.44,-252 1754.56,-252 1754.56,-216 1863.44,-216 1863.44,-252"/>
<text text-anchor="middle" x="1809" y="-229.8" font-family="Times,serif" font-size="14.00">AppComponent </text>
</g>
<!-- AppModule&#45;&gt;AppComponent  -->
<g id="edge20" class="edge">
<title>AppModule&#45;&gt;AppComponent </title>
<path fill="none" stroke="black" stroke-dasharray="1,5" d="M1809,-187.11C1809,-187.11 1809,-205.99 1809,-205.99"/>
<polygon fill="black" stroke="black" points="1805.5,-205.99 1809,-215.99 1812.5,-205.99 1805.5,-205.99"/>
</g>
<!-- AppRoutingModule -->
<g id="node20" class="node">
<title>AppRoutingModule</title>
<polygon fill="#8dd3c7" stroke="black" points="685.27,-122 682.27,-126 661.27,-126 658.27,-122 556.73,-122 556.73,-86 685.27,-86 685.27,-122"/>
<text text-anchor="middle" x="621" y="-99.8" font-family="Times,serif" font-size="14.00">AppRoutingModule</text>
</g>
<!-- AppRoutingModule&#45;&gt;AppModule -->
<g id="edge19" class="edge">
<title>AppRoutingModule&#45;&gt;AppModule</title>
<path fill="none" stroke="black" d="M621,-122.03C621,-142.77 621,-174 621,-174 621,-174 1757.07,-174 1757.07,-174"/>
<polygon fill="black" stroke="black" points="1757.07,-177.5 1767.07,-174 1757.07,-170.5 1757.07,-177.5"/>
</g>
<!-- AuthInterceptor -->
<g id="node22" class="node">
<title>AuthInterceptor</title>
<ellipse fill="#fdb462" stroke="black" cx="460" cy="-104" rx="72.91" ry="18"/>
<text text-anchor="middle" x="460" y="-99.8" font-family="Times,serif" font-size="14.00">AuthInterceptor</text>
</g>
<!-- AuthInterceptor&#45;&gt;AppModule -->
<g id="edge21" class="edge">
<title>AuthInterceptor&#45;&gt;AppModule</title>
<path fill="none" stroke="black" d="M460,-122.29C460,-144.21 460,-178 460,-178 460,-178 1757.15,-178 1757.15,-178"/>
<polygon fill="black" stroke="black" points="1757.15,-181.5 1767.15,-178 1757.15,-174.5 1757.15,-181.5"/>
</g>
<!-- UserRegistrationService -->
<g id="node23" class="node">
<title>UserRegistrationService</title>
<ellipse fill="#fdb462" stroke="black" cx="264" cy="-104" rx="105.35" ry="18"/>
<text text-anchor="middle" x="264" y="-99.8" font-family="Times,serif" font-size="14.00">UserRegistrationService</text>
</g>
<!-- UserRegistrationService&#45;&gt;AppModule -->
<g id="edge22" class="edge">
<title>UserRegistrationService&#45;&gt;AppModule</title>
<path fill="none" stroke="black" d="M264,-122.25C264,-145.02 264,-181 264,-181 264,-181 1757.28,-181 1757.28,-181"/>
<polygon fill="black" stroke="black" points="1757.28,-184.5 1767.28,-181 1757.28,-177.5 1757.28,-184.5"/>
</g>
<!-- UserService -->
<g id="node24" class="node">
<title>UserService</title>
<ellipse fill="#fdb462" stroke="black" cx="82" cy="-104" rx="58.44" ry="18"/>
<text text-anchor="middle" x="82" y="-99.8" font-family="Times,serif" font-size="14.00">UserService</text>
</g>
<!-- UserService&#45;&gt;AppModule -->
<g id="edge23" class="edge">
<title>UserService&#45;&gt;AppModule</title>
<path fill="none" stroke="black" d="M82,-122.15C82,-145.76 82,-184 82,-184 82,-184 1757.17,-184 1757.17,-184"/>
<polygon fill="black" stroke="black" points="1757.17,-187.5 1767.17,-184 1757.17,-180.5 1757.17,-187.5"/>
</g>
</g>
</svg>
